<?xml version="1.0" encoding="UTF-8"?>
<svg version="1.1" xmlns="http://www.w3.org/2000/svg" width="512" height="512">
<path d="M0 0 C1.501248 -0.00418218 3.00249283 -0.0096645 4.50373191 -0.01631981 C8.59370752 -0.03067745 12.68347996 -0.02656028 16.77346623 -0.019153 C21.19828017 -0.01439942 25.62305152 -0.02695048 30.04785156 -0.03717041 C38.70294399 -0.05432138 47.35796371 -0.05520607 56.01306871 -0.04995751 C63.05210259 -0.04590744 70.09111507 -0.04736928 77.13014793 -0.05270576 C78.63592377 -0.0538284 78.63592377 -0.0538284 80.17211932 -0.05497371 C82.21179568 -0.05650527 84.25147203 -0.05804362 86.29114839 -0.05958868 C105.39699215 -0.07330049 124.5027949 -0.06788545 143.60863771 -0.05640347 C161.06313095 -0.04647385 178.51751815 -0.05940943 195.97199503 -0.08333766 C213.92161184 -0.10775806 231.87117932 -0.11732922 249.8208124 -0.11068493 C259.88719338 -0.10719907 269.95349286 -0.1093828 280.01986122 -0.12693596 C288.58960905 -0.14169481 297.15921796 -0.14224546 305.72896317 -0.12486505 C310.09557224 -0.11638268 314.46193355 -0.11413736 318.82852936 -0.1295166 C322.83640838 -0.14345688 326.84382958 -0.13848228 330.85168274 -0.11927737 C332.29100276 -0.1155454 333.73036028 -0.11835706 335.1696466 -0.12888902 C359.61748971 -0.29487101 380.83006373 8.8976278 398.47550964 25.57518005 C415.56709136 43.47225605 423.22617104 65.04311942 423.1131897 89.66217041 C423.11737187 91.16341841 423.1228542 92.66466324 423.12950951 94.16590232 C423.14386715 98.25587793 423.13974998 102.34565037 423.1323427 106.43563664 C423.12758912 110.86045058 423.14014018 115.28522193 423.15036011 119.71002197 C423.16751108 128.3651144 423.16839577 137.02013412 423.1631472 145.67523912 C423.15909714 152.714273 423.16055898 159.75328548 423.16589546 166.79231834 C423.16664388 167.7961689 423.16739231 168.80001946 423.16816341 169.83428973 C423.16969497 171.87396609 423.17123332 173.91364245 423.17277838 175.9533188 C423.18649018 195.05916256 423.18107515 214.16496531 423.16959316 233.27080812 C423.15966354 250.72530136 423.17259913 268.17968856 423.19652735 285.63416544 C423.22094776 303.58378225 423.23051891 321.53334973 423.22387463 339.48298281 C423.22038877 349.54936379 423.2225725 359.61566327 423.24012566 369.68203163 C423.25488451 378.25177946 423.25543515 386.82138838 423.23805474 395.39113358 C423.22957237 399.75774265 423.22732706 404.12410396 423.2427063 408.49069977 C423.25664658 412.49857879 423.25167197 416.50599999 423.23246706 420.51385316 C423.2287351 421.95317317 423.23154676 423.39253069 423.24207871 424.83181701 C423.41034642 449.6163285 414.05054938 470.76341683 396.72550964 488.38768005 C396.05132996 489.07475037 395.37715027 489.76182068 394.68254089 490.4697113 C380.91984259 503.56105847 361.48033804 512.49064322 342.34719276 512.52190113 C341.07715767 512.52635897 339.80712257 512.53081682 338.49860156 512.53540975 C337.096668 512.53532046 335.69473444 512.53513064 334.2928009 512.53485107 C332.79759735 512.53815251 331.30239469 512.54187866 329.80719316 512.54599255 C325.70146485 512.5559891 321.59575116 512.55972557 317.49001241 512.56238186 C313.06031632 512.56629195 308.63063172 512.57586986 304.20094299 512.58459473 C293.50397948 512.60434032 282.80701504 512.6144234 272.11003786 512.62332252 C267.06836197 512.62770895 262.02668712 512.63307488 256.98501205 512.63831139 C240.21754232 512.65532254 223.45007324 512.66981535 206.68259621 512.67706013 C202.33313115 512.67896992 197.98366609 512.68089026 193.63420105 512.68284607 C192.55320725 512.68332981 191.47221345 512.68381355 190.35846226 512.68431195 C172.85826633 512.69260718 155.35813887 512.71793606 137.85797282 512.75042675 C119.87694692 512.78353705 101.89595576 512.80151252 83.91489923 512.80470437 C73.82492792 512.8068659 63.73505643 512.81556207 53.6451149 512.84116554 C45.04959288 512.86292691 36.45419493 512.87089633 27.85864849 512.86119876 C23.47790118 512.85666964 19.09740955 512.85845883 14.71669769 512.87796021 C10.69560275 512.89570499 6.67494786 512.89450369 2.6538475 512.87906291 C1.20960095 512.87670384 -0.23467699 512.88092062 -1.67887585 512.89289156 C-26.48072423 513.08551445 -47.63804791 503.72469224 -65.27449036 486.38768005 C-65.96156067 485.71350037 -66.64863098 485.03932068 -67.35652161 484.3447113 C-80.44786878 470.582013 -89.37745352 451.14250845 -89.40871143 432.00936317 C-89.41316928 430.73932808 -89.41762712 429.46929298 -89.42222005 428.16077197 C-89.42213077 426.75883841 -89.42194094 425.35690485 -89.42166138 423.95497131 C-89.42496281 422.45976776 -89.42868897 420.9645651 -89.43280286 419.46936357 C-89.4427994 415.36363526 -89.44653587 411.25792157 -89.44919217 407.15218282 C-89.45310225 402.72248673 -89.46268016 398.29280213 -89.47140503 393.8631134 C-89.49115062 383.16614989 -89.5012337 372.46918545 -89.51013282 361.77220827 C-89.51451926 356.73053238 -89.51988518 351.68885753 -89.52512169 346.64718246 C-89.54213284 329.87971273 -89.55662565 313.11224365 -89.56387043 296.34476662 C-89.56578022 291.99530156 -89.56770057 287.6458365 -89.56965637 283.29637146 C-89.57014011 282.21537766 -89.57062385 281.13438386 -89.57112225 280.02063267 C-89.57941748 262.52043674 -89.60474636 245.02030928 -89.63723705 227.52014323 C-89.67034735 209.53911733 -89.68832282 191.55812617 -89.69151467 173.57706964 C-89.6936762 163.48709833 -89.70237237 153.39722684 -89.72797585 143.30728531 C-89.74973721 134.71176329 -89.75770663 126.11636534 -89.74800906 117.5208189 C-89.74347994 113.14007159 -89.74526914 108.75957996 -89.76477051 104.3788681 C-89.78251529 100.35777316 -89.781314 96.33711827 -89.76587322 92.31601791 C-89.76351415 90.87177136 -89.76773092 89.42749342 -89.77970187 87.98329456 C-89.96970795 63.51838269 -80.7758336 42.29507224 -64.08699036 24.63768005 C-46.18991436 7.54609834 -24.61905099 -0.11298135 0 0 Z M-45.02449036 50.01268005 C-57.9464805 65.04580323 -59.43129367 82.29501348 -59.40820312 101.32780457 C-59.41007448 102.72064057 -59.41237647 104.11347604 -59.41506845 105.5063107 C-59.42115271 109.31042663 -59.42105686 113.11452046 -59.41987407 116.91864014 C-59.41966921 121.03056676 -59.42519695 125.14248644 -59.42993164 129.25440979 C-59.43822011 137.30162082 -59.44098566 145.34882452 -59.44154402 153.39603946 C-59.44202002 159.94030452 -59.44407893 166.48456718 -59.44724464 173.02883148 C-59.45604613 191.60291654 -59.46066479 210.17699583 -59.45991417 228.75108299 C-59.45987421 229.75135533 -59.45983426 230.75162768 -59.45979309 231.7822113 C-59.45975221 232.78371174 -59.45971133 233.78521217 -59.45966921 234.8170611 C-59.45926284 251.04442534 -59.46883154 267.27176637 -59.48293146 283.4991239 C-59.49731118 300.1807528 -59.50420077 316.86237038 -59.50333768 333.54400563 C-59.50300627 342.90164372 -59.50572872 352.25925747 -59.51651573 361.61688995 C-59.52564172 369.58433149 -59.52777876 377.55173766 -59.52100631 385.51918218 C-59.51775174 389.57964512 -59.51764577 393.64004027 -59.52635956 397.70049667 C-59.53427274 401.42638968 -59.5327445 405.15216168 -59.52407543 408.87805191 C-59.52183556 410.84558825 -59.52933104 412.81312849 -59.53731507 414.7806499 C-59.46145631 434.56015291 -55.76580054 451.12123933 -41.95808411 465.8603363 C-26.99077242 480.25105814 -9.22475262 482.54526542 10.6280365 482.52139282 C12.02897174 482.52326357 13.42990645 482.52556532 14.83084035 482.52825814 C18.66194933 482.53434996 22.49303641 482.53424565 26.32414913 482.53306377 C30.46334097 482.5328591 34.60252589 482.53838484 38.74171448 482.54312134 C46.84420666 482.55141403 54.94669156 482.55417555 63.04918763 482.55473372 C69.63782159 482.55520952 76.22645316 482.5572675 82.81508636 482.56043434 C101.51082028 482.56923708 120.20654847 482.5738543 138.90228447 482.57310387 C140.41289617 482.57304393 140.41289617 482.57304393 141.95402527 482.57298279 C142.96233474 482.57294191 143.97064421 482.57290103 145.00950852 482.57285891 C161.34754279 482.57245253 177.685554 482.58202107 194.02358159 482.59612115 C210.8147852 482.61049756 227.60597756 482.61739065 244.39718747 482.61652738 C253.81796572 482.61619585 263.2387198 482.61892359 272.65949249 482.62970543 C280.68078557 482.63882706 288.7020435 482.64097203 296.72333953 482.63419601 C300.81202518 482.63093922 304.90064349 482.6308436 308.98932266 482.63954926 C312.73987532 482.6474525 316.49030766 482.64594413 320.24085751 482.63726512 C322.22409281 482.63502113 324.20733195 482.64252862 326.19055247 482.65050477 C345.57980866 482.57648789 361.77870085 478.57955622 376.19816589 465.0712738 C390.92621982 449.75311421 392.88376315 431.67569129 392.85922241 411.44755554 C392.86109377 410.05471954 392.86339576 408.66188406 392.86608773 407.26904941 C392.872172 403.46493348 392.87207614 399.66083964 392.87089336 395.85671997 C392.8706885 391.74479335 392.87621624 387.63287367 392.88095093 383.52095032 C392.8892394 375.47373929 392.89200495 367.42653559 392.89256331 359.37932065 C392.8930393 352.83505559 392.89509822 346.29079293 392.89826393 339.74652863 C392.90706542 321.17244357 392.91168407 302.59836428 392.91093346 284.02427712 C392.9108935 283.02400478 392.91085354 282.02373243 392.91081238 280.9931488 C392.9107715 279.99164837 392.91073062 278.99014794 392.9106885 277.95829901 C392.91028212 261.73093477 392.91985082 245.50359374 392.93395074 229.27623621 C392.94833046 212.59460731 392.95522006 195.91298972 392.95435697 179.23135448 C392.95402556 169.87371639 392.956748 160.51610264 392.96753502 151.15847015 C392.97666101 143.19102861 392.97879805 135.22362245 392.9720256 127.25617793 C392.96877103 123.19571499 392.96866506 119.13531984 392.97737885 115.07486343 C392.98529203 111.34897043 392.98376379 107.62319843 392.97509471 103.8973082 C392.97285485 101.92977186 392.98035033 99.96223162 392.98833436 97.99471021 C392.91230974 78.17196131 389.16592276 61.80301533 375.47941589 46.95018005 C360.26806472 32.16344788 342.05799036 30.2293726 321.78538513 30.25396729 C320.39254913 30.25209593 318.99971365 30.24979394 317.606879 30.24710196 C313.80276307 30.2410177 309.99866923 30.24111355 306.19454956 30.24229634 C302.08262294 30.2425012 297.97070326 30.23697346 293.85877991 30.23223877 C285.81156888 30.2239503 277.76436518 30.22118475 269.71715024 30.22062639 C263.17288518 30.2201504 256.62862252 30.21809148 250.08435822 30.21492577 C231.51027316 30.20612428 212.93619387 30.20150562 194.36210671 30.20225624 C193.36183437 30.2022962 192.36156202 30.20233615 191.33097839 30.20237732 C189.82872775 30.20243864 189.82872775 30.20243864 188.2961286 30.2025012 C172.06876436 30.20290757 155.84142333 30.19333887 139.6140658 30.17923895 C122.9324369 30.16485923 106.25081931 30.15796964 89.56918406 30.15883273 C80.21154598 30.15916414 70.85393223 30.15644169 61.49629974 30.14565468 C53.5288582 30.13652869 45.56145204 30.13439165 37.59400752 30.1411641 C33.53354458 30.14441867 29.47314943 30.14452464 25.41269302 30.13581085 C21.68680002 30.12789767 17.96102802 30.12942591 14.23513779 30.13809498 C12.26760145 30.14033485 10.30006121 30.13283937 8.3325398 30.12485534 C-12.6995825 30.20551818 -30.03164567 34.5892976 -45.02449036 50.01268005 Z " fill="#FFFFFF" transform="translate(89.27449035644531,-0.3876800537109375)"/>
<path d="M0 0 C2.30739451 -0.00271341 4.61478816 -0.0062763 6.92218018 -0.01062012 C13.16176749 -0.01970469 19.40128835 -0.0162161 25.64087677 -0.00986195 C32.18555372 -0.00478157 38.73022516 -0.00949905 45.27490234 -0.01263428 C56.96623738 -0.01689931 68.65754459 -0.01030372 80.34887481 -0.0001156 C90.92856165 0.00881869 101.50820458 0.00726628 112.08789062 -0.00195312 C124.40235744 -0.01267938 136.71679631 -0.01662784 149.03126717 -0.0107286 C155.53947121 -0.00761823 162.04764509 -0.00717388 168.55584717 -0.01380157 C174.67577865 -0.01959907 180.79562762 -0.01553421 186.91555023 -0.00401306 C189.1551983 -0.00137932 191.39485336 -0.00210947 193.6344986 -0.00653839 C222.18736471 -0.05777577 222.18736471 -0.05777577 233.3515625 5.82128906 C234.03009277 6.1720752 234.70862305 6.52286133 235.40771484 6.88427734 C247.83305706 13.60959412 255.05918197 24.50050024 259.33360291 37.74315262 C260.9102306 44.41758904 260.71972984 51.13142823 260.68164062 57.94775391 C260.68707223 59.59494645 260.69420067 61.24213412 260.70288086 62.88931274 C260.72098531 67.32700317 260.71410277 71.76431817 260.70136452 76.20201445 C260.69117985 80.85967173 260.70064434 85.51729862 260.70690918 90.17495728 C260.71416541 97.98730194 260.70464669 105.79949483 260.68554688 113.61181641 C260.66373623 122.63704612 260.67086797 131.66191493 260.6928525 140.68713605 C260.71100978 148.45304397 260.71356459 156.21884336 260.70309782 163.98476565 C260.69687057 168.61599627 260.69600701 173.24705719 260.70924377 177.87827682 C260.7208081 182.22709691 260.71276619 186.57545121 260.68966675 190.92422104 C260.68438471 192.51813484 260.68588483 194.11208795 260.69471741 195.70598602 C260.70567612 197.88454458 260.6919086 200.06161749 260.67199707 202.24008179 C260.66973492 204.06674157 260.66973492 204.06674157 260.66742706 205.93030357 C259.87700288 211.15696358 257.36968423 214.22257 253.42919922 217.609375 C249.48852105 219.60004508 246.23061807 219.77050424 241.921875 219.64941406 C241.15350311 219.64375427 240.38513123 219.63809448 239.59347534 219.63226318 C237.15801629 219.61001079 234.72407093 219.55983948 232.2890625 219.50878906 C230.6302297 219.48870948 228.97137366 219.47046126 227.3125 219.45410156 C223.26244451 219.41018312 219.21350944 219.34123669 215.1640625 219.25878906 C215.18500977 220.56025879 215.20595703 221.86172852 215.22753906 223.20263672 C215.30009443 228.0443211 215.34591897 232.88595767 215.38378906 237.72802734 C215.40386909 239.82120859 215.4311389 241.91433398 215.46582031 244.00732422 C215.51449684 247.02097375 215.53706762 250.0338798 215.5546875 253.04785156 C215.57533264 253.97933014 215.59597778 254.91080872 215.61724854 255.87051392 C215.61919061 261.53016878 214.97188974 264.7820192 211.1640625 269.25878906 C205.5269007 274.47316372 200.89863544 274.40380535 193.4609375 274.35644531 C192.62314758 274.35503036 191.78535767 274.35361542 190.92218018 274.35215759 C188.25277093 274.34657104 185.5834463 274.334021 182.9140625 274.32128906 C181.10156371 274.31627232 179.28906361 274.31170972 177.4765625 274.30761719 C173.03903002 274.296606 168.60156059 274.27935061 164.1640625 274.25878906 C164.19024658 275.07033447 164.21643066 275.88187988 164.2434082 276.71801758 C164.34777402 280.41890872 164.41251753 284.1194896 164.4765625 287.82128906 C164.51845703 289.09810547 164.56035156 290.37492187 164.60351562 291.69042969 C164.76000195 303.73987708 164.76000195 303.73987708 160.79988098 307.87909508 C154.87497363 312.87632376 147.41595111 312.69112787 140.1015625 312.64697266 C138.48048584 312.65485809 138.48048584 312.65485809 136.82666016 312.66290283 C133.27231171 312.6760519 129.7184151 312.66738247 126.1640625 312.65722656 C123.68359288 312.65924875 121.20312384 312.6621614 118.72265625 312.66592407 C113.53119226 312.67034054 108.33988342 312.66393796 103.1484375 312.64990234 C96.50402475 312.63281113 89.85997559 312.6426559 83.21557617 312.66061974 C78.09567541 312.67147571 72.97586042 312.66800285 67.85595703 312.66023636 C65.40641232 312.65823938 62.95685975 312.66067592 60.50732422 312.66767502 C57.08019468 312.6753191 53.65364873 312.6636431 50.2265625 312.64697266 C49.22061035 312.65304535 48.2146582 312.65911804 47.17822266 312.66537476 C40.80734764 312.60815133 34.62484923 312.17771111 29.52824402 307.87909508 C25.1634685 303.31692197 25.64708871 297.65952065 25.72460938 291.69042969 C25.76650391 290.41361328 25.80839844 289.13679688 25.8515625 287.82128906 C25.87412109 286.51740234 25.89667969 285.21351563 25.91992188 283.87011719 C25.97862087 280.6651523 26.06069412 277.46257276 26.1640625 274.25878906 C25.0495874 274.27449951 23.9351123 274.29020996 22.78686523 274.30639648 C18.62906193 274.36093537 14.4712899 274.39522586 10.31323242 274.42358398 C8.51793083 274.43861622 6.72266562 274.45904763 4.92749023 274.48510742 C2.33828724 274.52173692 -0.25042778 274.53857117 -2.83984375 274.55175781 C-4.03245567 274.5749836 -4.03245567 274.5749836 -5.24916077 274.59867859 C-11.07996792 274.60041644 -16.04308116 273.71975889 -20.578125 269.72363281 C-23.44756487 265.85483629 -24.96313852 263.77914598 -24.94946289 258.99267578 C-24.94938736 258.11191376 -24.94931183 257.23115173 -24.94923401 256.32369995 C-24.94407272 255.37157623 -24.93891144 254.41945251 -24.93359375 253.43847656 C-24.9321788 252.46468048 -24.93076385 251.4908844 -24.92930603 250.48757935 C-24.92369723 247.36961833 -24.91114323 244.25172847 -24.8984375 241.13378906 C-24.89342363 239.02311301 -24.88886053 236.91243584 -24.88476562 234.80175781 C-24.87372495 229.62074385 -24.85697823 224.43977154 -24.8359375 219.25878906 C-25.86477051 219.27973633 -26.89360352 219.30068359 -27.95361328 219.32226562 C-31.78891963 219.394939 -35.62416572 219.44068727 -39.45996094 219.47851562 C-41.11664075 219.49856915 -42.77325032 219.52581935 -44.4296875 219.56054688 C-46.81788508 219.60934418 -49.20514297 219.6318197 -51.59375 219.64941406 C-52.69567184 219.68038177 -52.69567184 219.68038177 -53.81985474 219.7119751 C-59.01562154 219.71421675 -61.90832757 218.63452807 -65.8359375 215.25878906 C-69.35771854 210.80015388 -70.33686766 207.89605066 -70.34387207 202.24008179 C-70.35323201 201.21603695 -70.35323201 201.21603695 -70.36278105 200.17130435 C-70.37866727 197.89590971 -70.36612474 195.62159296 -70.35351562 193.34619141 C-70.35893903 191.70961892 -70.36606292 190.07305131 -70.37475586 188.43649292 C-70.39297489 183.99804552 -70.38592532 179.55997053 -70.37323952 175.1215167 C-70.36309419 170.46663141 -70.37251041 165.81177745 -70.37878418 161.15689087 C-70.38606047 153.33386534 -70.37647792 145.51099086 -70.35742188 137.68798828 C-70.3356988 128.66641081 -70.34267127 119.64519561 -70.3647275 110.62362707 C-70.38293667 102.86284186 -70.38541158 95.10216515 -70.37497282 87.34136546 C-70.36876223 82.71320778 -70.36783384 78.08521973 -70.38111877 73.45707321 C-70.39275554 69.09846626 -70.38451018 64.74032103 -70.36154175 60.38176346 C-70.35629416 58.79037489 -70.35769991 57.19894684 -70.36659241 55.60757446 C-70.44677939 39.78692762 -66.72493029 26.62795245 -55.9609375 14.63378906 C-52.02039015 10.89259486 -47.81669539 8.29930436 -43.0234375 5.82128906 C-42.39646973 5.49112793 -41.76950195 5.1609668 -41.12353516 4.82080078 C-28.43469824 -1.30716671 -13.7125973 -0.02711682 0 0 Z M-35.8359375 39.25878906 C-38.32532676 43.47010777 -39.20954777 46.535961 -39.19670105 51.40914917 C-39.20082504 52.62062119 -39.20494904 53.8320932 -39.209198 55.08027649 C-39.19841217 56.39586044 -39.18762634 57.7114444 -39.17651367 59.06689453 C-39.17566678 60.47662844 -39.17614376 61.88636366 -39.17784119 63.2960968 C-39.17870014 67.11185223 -39.16109079 70.9273234 -39.14011931 74.74301291 C-39.12133573 78.73483931 -39.11960075 82.7266726 -39.11604309 86.71853638 C-39.10672755 94.27262507 -39.08212046 101.82658316 -39.05199462 109.3806144 C-39.01843528 117.98274797 -39.00196075 126.58488785 -38.98690832 135.18707061 C-38.95557044 152.87771741 -38.90281954 170.56824273 -38.8359375 188.25878906 C-37.90322021 188.27337158 -36.97050293 188.2879541 -36.00952148 188.30297852 C-32.52213655 188.36432805 -29.03550299 188.43853307 -25.54858398 188.52124023 C-24.04445563 188.55432815 -22.54020792 188.58240951 -21.03588867 188.60522461 C-18.86325606 188.63907073 -16.69170137 188.69139527 -14.51953125 188.74707031 C-12.56358032 188.78634644 -12.56358032 188.78634644 -10.56811523 188.82641602 C-5.22443887 189.44548129 -1.25498013 190.76505998 2.5390625 194.75878906 C4.70508087 198.09112501 5.28954269 200.6571813 5.36938477 204.54663086 C5.3993026 205.83762947 5.3993026 205.83762947 5.42982483 207.15470886 C5.44653732 208.07979752 5.46324982 209.00488617 5.48046875 209.95800781 C5.50124985 210.9081929 5.52203094 211.85837799 5.54344177 212.83735657 C5.60884302 215.87359362 5.66777854 218.90991738 5.7265625 221.94628906 C5.76975667 224.00424075 5.81337126 226.06218366 5.85742188 228.12011719 C5.96451481 233.16625222 6.06580896 238.21247449 6.1640625 243.25878906 C7.34959717 243.27337158 8.53513184 243.2879541 9.7565918 243.30297852 C14.16444727 243.36104844 18.57179654 243.4382809 22.97924805 243.52124023 C24.88508881 243.55444868 26.79102696 243.58249331 28.69702148 243.60522461 C31.44036265 243.63884574 34.18281472 243.69116501 36.92578125 243.74707031 C37.77492599 243.75346024 38.62407074 243.75985016 39.49894714 243.76643372 C45.61242017 243.91761204 49.04621484 245.0821123 53.4140625 249.57128906 C58.67183526 257.64572581 56.86837289 274.45792803 57.1640625 281.25878906 C82.2440625 281.25878906 107.3240625 281.25878906 133.1640625 281.25878906 C133.4940625 273.66878906 133.8240625 266.07878906 134.1640625 258.25878906 C136.46940601 249.03741502 136.46940601 249.03741502 141.1640625 245.25878906 C143.82103008 244.3731332 145.44596333 244.11376286 148.17651367 244.0534668 C148.97711716 244.03352158 149.77772064 244.01357635 150.60258484 243.99302673 C151.89178581 243.96795799 151.89178581 243.96795799 153.20703125 243.94238281 C154.0906282 243.92160172 154.97422516 243.90082062 155.88459778 243.87940979 C158.70684035 243.81403152 161.52917585 243.75508378 164.3515625 243.69628906 C166.26498356 243.6530927 168.17839523 243.60947804 170.09179688 243.56542969 C174.78245687 243.45836211 179.47321033 243.35706155 184.1640625 243.25878906 C184.17864502 241.9876123 184.19322754 240.71643555 184.20825195 239.40673828 C184.26636057 234.67647614 184.34359298 229.94668377 184.42651367 225.21679688 C184.45970391 223.17227826 184.48775413 221.12766932 184.51049805 219.08300781 C184.54415243 216.138607 184.59647416 213.19502952 184.65234375 210.25097656 C184.65873367 209.34137177 184.6651236 208.43176697 184.67170715 207.49459839 C184.7900557 202.35006465 185.30274211 198.70877386 188.1640625 194.25878906 C193.34061289 189.3477028 197.65795612 189.11205586 204.5546875 188.94238281 C205.25930115 188.92160172 205.96391479 188.90082062 206.68988037 188.87940979 C208.93117931 188.81425069 211.17259114 188.75518658 213.4140625 188.69628906 C214.93751147 188.6530718 216.46094921 188.6094565 217.984375 188.56542969 C221.71081841 188.45860415 225.43738744 188.35724268 229.1640625 188.25878906 C229.28096956 169.75214271 229.36908671 151.2455715 229.42312336 132.7386322 C229.44888272 124.14512778 229.48398963 115.55185306 229.54125977 106.95849609 C229.59116449 99.46673233 229.62337001 91.97513497 229.63450497 84.48320961 C229.64101186 80.5178123 229.65625679 76.55289094 229.69271278 72.58764648 C229.72678453 68.85127364 229.7370933 65.11557038 229.72960091 61.37905693 C229.73162096 59.36232311 229.75845747 57.34566134 229.78616333 55.32911682 C229.73530112 46.34394409 228.12931732 41.22404389 221.7890625 34.88378906 C216.31172581 31.49305683 210.80879004 31.01264667 204.48046875 31.06347656 C203.78009995 31.06630646 203.07973114 31.06913635 202.35813904 31.072052 C200.1474308 31.08314021 197.93714579 31.10822203 195.7265625 31.13378906 C194.21680278 31.14383361 192.70703662 31.15295686 191.19726562 31.16113281 C187.51939653 31.18304192 183.8417709 31.21749148 180.1640625 31.25878906 C180.16041687 32.00967804 180.15677124 32.76056702 180.15301514 33.53421021 C180.11507969 40.62579366 180.05816456 47.71691508 179.98015976 54.80815315 C179.94072361 58.45350008 179.90851662 62.09860687 179.89306641 65.74414062 C179.87787371 69.26521982 179.84338368 72.78563865 179.79575348 76.30642319 C179.77379118 78.29704489 179.77159101 80.28785301 179.76971436 82.27859497 C179.58695446 93.59356075 179.58695446 93.59356075 175.1640625 98.25878906 C170.43694184 101.55678022 165.76757466 102.16258135 160.1640625 101.25878906 C155.71177814 99.03264688 153.29672517 96.74860521 151.1640625 92.25878906 C150.148832 89.00208215 150.01143247 85.97467876 149.95874023 82.57226562 C149.93879501 81.43138489 149.91884979 80.29050415 149.89830017 79.11505127 C149.87323143 77.27581085 149.87323143 77.27581085 149.84765625 75.39941406 C149.82687515 74.13989929 149.80609406 72.88038452 149.78468323 71.58270264 C149.73039948 68.24220035 149.68014181 64.90168684 149.63183594 61.56109619 C149.58150546 58.14907523 149.52593081 54.73713994 149.47070312 51.32519531 C149.36282029 44.6364593 149.26367517 37.94767384 149.1640625 31.25878906 C136.2940625 31.25878906 123.4240625 31.25878906 110.1640625 31.25878906 C110.13828125 35.59261719 110.1125 39.92644531 110.0859375 44.39160156 C110.05424127 47.85667159 110.01859008 51.32165094 109.98027039 54.78665161 C109.94095878 58.43916704 109.90854699 62.09143984 109.89306641 65.74414062 C109.87787371 69.26521982 109.84338368 72.78563865 109.79575348 76.30642319 C109.77379118 78.29704489 109.77159101 80.28785301 109.76971436 82.27859497 C109.58824142 93.51388295 109.58824142 93.51388295 105.1640625 98.25878906 C101.32693054 101.64449373 97.53004788 101.77170079 92.6015625 101.61035156 C88.95610232 101.08456404 86.873009 99.7034481 84.1640625 97.25878906 C81.4070144 93.4450215 80.78009412 90.76744338 80.73168945 86.09155273 C80.71189529 84.87066452 80.69210114 83.64977631 80.67170715 82.39189148 C80.66531723 81.08339737 80.65892731 79.77490326 80.65234375 78.42675781 C80.63548738 77.06625251 80.61733584 75.70576269 80.59794617 74.34529114 C80.55054337 70.77630451 80.52067163 67.20738068 80.49450684 63.63818359 C80.46465188 59.99141122 80.4182988 56.34485066 80.37304688 52.69824219 C80.28557191 45.55174125 80.22554629 38.40575011 80.1640625 31.25878906 C67.2940625 31.25878906 54.4240625 31.25878906 41.1640625 31.25878906 C41.12667969 35.28066406 41.08929688 39.30253906 41.05078125 43.44628906 C41.01262421 46.67089565 40.97155186 49.89543605 40.9285202 53.11997986 C40.88402049 56.51404529 40.84455324 59.90799188 40.81762695 63.30224609 C40.78397258 67.20472158 40.73164849 71.10657599 40.67578125 75.00878906 C40.66939133 76.2143042 40.6630014 77.41981934 40.65641785 78.66186523 C40.54278314 85.20972192 40.06143244 90.34327113 37.1640625 96.25878906 C32.61089608 100.58984981 29.59109372 101.56781043 23.48046875 101.46972656 C18.88431033 101.05118937 16.15770612 99.30687578 13.03417969 96.01220703 C9.72661542 90.81580531 10.56027511 84.25640984 10.5546875 78.32910156 C10.53969293 76.97002198 10.5229631 75.61096054 10.50457764 74.25192261 C10.461034 70.69111253 10.44093436 67.1305482 10.42584229 63.56951904 C10.40622387 59.92933702 10.36425941 56.28941859 10.32421875 52.64941406 C10.24905806 45.51930641 10.19868134 38.38921824 10.1640625 31.25878906 C5.75328906 31.18407565 1.34286066 31.12992393 -3.06835938 31.09399414 C-4.56582057 31.07900018 -6.06323855 31.05859801 -7.56054688 31.0324707 C-18.62314009 30.84440662 -27.56712988 30.98998145 -35.8359375 39.25878906 Z " fill="#FFFFFF" transform="translate(160.8359375,99.7412109375)"/>
</svg>
